<?xml version="1.0" encoding="UTF-8"?>
<!DOCTYPE svg PUBLIC "-//W3C//DTD SVG 1.1//EN" "http://www.w3.org/Graphics/SVG/1.1/DTD/svg11.dtd">
<svg xmlns="http://www.w3.org/2000/svg" version="1.1" width="512px" height="512px" style="shape-rendering:geometricPrecision; text-rendering:geometricPrecision; image-rendering:optimizeQuality; fill-rule:evenodd; clip-rule:evenodd" xmlns:xlink="http://www.w3.org/1999/xlink">
<g><path style="opacity:0.957" fill="#fefefe" d="M 233.5,-0.5 C 248.167,-0.5 262.833,-0.5 277.5,-0.5C 376.771,12.0368 447.937,63.3702 491,153.5C 501.624,179.333 508.457,205.999 511.5,233.5C 511.5,248.167 511.5,262.833 511.5,277.5C 498.963,376.771 447.63,447.937 357.5,491C 331.667,501.624 305.001,508.457 277.5,511.5C 262.833,511.5 248.167,511.5 233.5,511.5C 134.229,498.963 63.0626,447.63 20,357.5C 9.37597,331.667 2.54263,305.001 -0.5,277.5C -0.5,262.833 -0.5,248.167 -0.5,233.5C 12.0368,134.229 63.3702,63.0626 153.5,20C 179.333,9.37597 205.999,2.54263 233.5,-0.5 Z"/></g>
<g><path style="opacity:0.961" fill="#040404" d="M 389.5,296.5 C 381.45,295.169 373.45,295.503 365.5,297.5C 364.771,300.541 363.604,303.541 362,306.5C 358.113,309.131 354.28,308.965 350.5,306C 346.48,302.989 343.647,299.156 342,294.5C 341.667,284.167 341.333,273.833 341,263.5C 340.42,257.511 339.253,251.677 337.5,246C 328.935,248.855 320.102,251.355 311,253.5C 309.338,253.612 308.171,252.946 307.5,251.5C 328.736,237.777 347.736,221.277 364.5,202C 361.347,198.178 358.18,194.345 355,190.5C 353.883,188.876 352.383,187.876 350.5,187.5C 344.379,192.449 338.379,197.615 332.5,203C 328.66,205.421 324.66,207.588 320.5,209.5C 320.167,209 319.833,208.5 319.5,208C 327.418,197.002 333.918,185.168 339,172.5C 343.534,160.565 347.867,148.565 352,136.5C 353.085,131.563 353.752,126.563 354,121.5C 358.153,118.892 362.32,119.059 366.5,122C 371.333,125.5 375.5,129.667 379,134.5C 380.504,138.039 380.837,141.705 380,145.5C 377.78,148.54 376.28,151.873 375.5,155.5C 384.377,155.918 392.377,153.584 399.5,148.5C 407.728,152.033 414.562,157.366 420,164.5C 420.667,166.833 420.667,169.167 420,171.5C 416.965,174.87 413.632,177.87 410,180.5C 405.394,188.039 400.061,195.039 394,201.5C 393.333,202.167 393.333,202.833 394,203.5C 412.982,215.943 433.482,225.11 455.5,231C 456.022,231.561 456.355,232.228 456.5,233C 448.31,241.26 438.31,246.093 426.5,247.5C 422.661,246.931 418.994,246.098 415.5,245C 418.148,246.633 419.481,248.967 419.5,252C 415.224,265.154 412.724,278.654 412,292.5C 408.795,300.537 402.961,305.537 394.5,307.5C 392.575,307.41 391.408,306.41 391,304.5C 390.817,301.635 390.317,298.969 389.5,296.5 Z"/></g>
<g><path style="opacity:0.961" fill="#030303" d="M 213.5,254.5 C 203.275,254.083 193.275,254.749 183.5,256.5C 176.059,256.493 168.726,257.327 161.5,259C 170.587,262.448 178.087,267.948 184,275.5C 184.743,277.441 184.576,279.274 183.5,281C 168.437,291.699 152.104,300.032 134.5,306C 130.822,306.418 127.155,306.918 123.5,307.5C 122.5,307.167 121.5,306.833 120.5,306.5C 130.48,298.02 139.98,289.02 149,279.5C 153.752,273.661 156.585,266.995 157.5,259.5C 150.903,260.987 144.236,261.487 137.5,261C 130.986,257.321 126.986,251.821 125.5,244.5C 125.818,243.353 126.484,242.519 127.5,242C 136.166,241.417 144.833,240.917 153.5,240.5C 153.667,224.163 153.5,207.83 153,191.5C 144.75,189.65 139.583,184.65 137.5,176.5C 137.709,175.006 138.376,173.839 139.5,173C 143.486,172.501 147.486,172.334 151.5,172.5C 152.01,159.698 151.01,147.032 148.5,134.5C 156.798,133.829 164.798,134.995 172.5,138C 173.667,139.167 174.833,140.333 176,141.5C 176.5,150.494 176.666,159.494 176.5,168.5C 182.087,167.822 187.587,166.822 193,165.5C 192.802,157.537 192.469,149.537 192,141.5C 191.701,137.239 190.534,133.239 188.5,129.5C 188.818,128.353 189.484,127.519 190.5,127C 200.639,125.794 209.972,127.961 218.5,133.5C 218.729,142.765 218.729,152.098 218.5,161.5C 232.277,159.786 239.444,165.786 240,179.5C 239.097,180.701 237.931,181.535 236.5,182C 230.175,182.5 223.842,182.666 217.5,182.5C 217.5,199.167 217.5,215.833 217.5,232.5C 224.138,231.502 230.805,231.335 237.5,232C 243.061,234.562 246.894,238.728 249,244.5C 250.293,248.582 249.126,251.749 245.5,254C 234.839,254.5 224.172,254.667 213.5,254.5 Z"/></g>
<g><path style="opacity:0.961" fill="#070707" d="M 92.5,131.5 C 105.117,131.452 116.784,134.618 127.5,141C 133.25,150.009 132.25,158.342 124.5,166C 122.833,166.667 121.167,166.667 119.5,166C 109.727,155.902 100.394,145.569 91.5,135C 91.9891,133.862 92.3225,132.695 92.5,131.5 Z"/></g>
<g><path style="opacity:0.961" fill="#060606" d="M 286.5,132.5 C 298.68,132.836 309.18,137.169 318,145.5C 321.029,153.076 319.529,159.576 313.5,165C 309.679,167.141 306.012,166.974 302.5,164.5C 297.515,155.199 292.015,146.199 286,137.5C 285.36,135.735 285.527,134.068 286.5,132.5 Z"/></g>
<g><path style="opacity:0.961" fill="#050505" d="M 116.5,171.5 C 123.055,172.528 128.555,175.528 133,180.5C 134.667,182.833 136.333,185.167 138,187.5C 138.667,189.167 138.667,190.833 138,192.5C 133.509,197.504 130.009,203.171 127.5,209.5C 143.335,214.525 146.835,224.192 138,238.5C 134.26,241.474 131.26,240.807 129,236.5C 125.915,231.328 122.581,226.328 119,221.5C 118.13,222.108 117.63,222.941 117.5,224C 119.409,225.62 120.743,227.62 121.5,230C 120.697,249.48 120.197,268.98 120,288.5C 119.94,293.39 118.94,298.057 117,302.5C 114.062,304.869 110.896,305.036 107.5,303C 102.814,299.635 99.6469,295.135 98,289.5C 97.7408,277.975 98.2408,266.475 99.5,255C 99.1667,251.167 98.8333,247.333 98.5,243.5C 89.2393,250.298 79.2393,255.798 68.5,260C 65.2432,261.043 61.9099,261.543 58.5,261.5C 58.3433,260.127 58.51,258.793 59,257.5C 72.0085,245.158 84.3419,232.158 96,218.5C 100.992,212.173 105.159,205.34 108.5,198C 107.167,197.333 105.833,197.333 104.5,198C 99.5797,200.196 94.5797,202.196 89.5,204C 81.0248,206.179 74.8581,203.346 71,195.5C 69.0863,192.702 68.0863,189.702 68,186.5C 85.3447,185.218 101.511,180.218 116.5,171.5 Z"/></g>
<g><path style="opacity:0.961" fill="#f2f2f2" d="M 360.5,174.5 C 368.111,175.434 375.778,175.767 383.5,175.5C 381.575,181.02 378.408,185.687 374,189.5C 368.374,186.045 362.874,182.378 357.5,178.5C 358.524,177.148 359.524,175.815 360.5,174.5 Z"/></g>
<g><path style="opacity:0.961" fill="#050505" d="M 263.5,176.5 C 274.653,176.077 284.487,179.41 293,186.5C 297.283,191.739 298.616,197.739 297,204.5C 293.611,212.701 287.945,215.368 280,212.5C 274.422,201.01 268.589,189.677 262.5,178.5C 262.863,177.817 263.196,177.15 263.5,176.5 Z"/></g>
<g><path style="opacity:0.961" fill="#f7f7f7" d="M 193.5,185.5 C 193.5,188.5 193.5,191.5 193.5,194.5C 191.585,194.216 189.919,194.549 188.5,195.5C 184.534,196.162 180.534,196.495 176.5,196.5C 176.5,193.5 176.5,190.5 176.5,187.5C 182.155,186.751 187.822,186.085 193.5,185.5 Z"/></g>
<g><path style="opacity:0.961" fill="#4e4e4e" d="M 193.5,185.5 C 194.479,188.625 194.813,191.958 194.5,195.5C 192.5,195.5 190.5,195.5 188.5,195.5C 189.919,194.549 191.585,194.216 193.5,194.5C 193.5,191.5 193.5,188.5 193.5,185.5 Z"/></g>
<g><path style="opacity:0.961" fill="#050505" d="M 315.5,193.5 C 316.376,193.369 317.043,193.702 317.5,194.5C 311.544,219.327 306.377,244.327 302,269.5C 299.671,278.66 296.504,287.493 292.5,296C 289.634,297.457 286.634,297.79 283.5,297C 275.666,288.166 270.333,277.999 267.5,266.5C 267.833,265.167 268.167,263.833 268.5,262.5C 274.656,261.173 279.823,258.173 284,253.5C 296.327,234.515 306.827,214.515 315.5,193.5 Z"/></g>
<g><path style="opacity:0.96" fill="#f6f6f6" d="M 193.5,216.5 C 189.84,216.159 186.507,216.825 183.5,218.5C 181.167,218.5 178.833,218.5 176.5,218.5C 176.5,215.833 176.5,213.167 176.5,210.5C 182.138,209.78 187.804,209.447 193.5,209.5C 193.5,211.833 193.5,214.167 193.5,216.5 Z"/></g>
<g><path style="opacity:0.961" fill="#545454" d="M 193.5,216.5 C 190.373,217.581 187.04,218.247 183.5,218.5C 186.507,216.825 189.84,216.159 193.5,216.5 Z"/></g>
<g><path style="opacity:0.961" fill="#f7f7f7" d="M 378.5,216.5 C 381.14,216.954 383.473,218.121 385.5,220C 389.978,224.401 394.645,228.568 399.5,232.5C 395.163,233.67 390.83,234.836 386.5,236C 377.787,236.841 369.12,238.008 360.5,239.5C 358.172,238.67 355.838,237.837 353.5,237C 362.639,231.104 370.973,224.271 378.5,216.5 Z"/></g>
<g><path style="opacity:0.96" fill="#f0f0f0" d="M 180.5,230.5 C 184.833,230.5 189.167,230.5 193.5,230.5C 193.5,232.5 193.5,234.5 193.5,236.5C 187.819,236.635 182.152,236.968 176.5,237.5C 176.5,235.5 176.5,233.5 176.5,231.5C 178.099,231.768 179.432,231.434 180.5,230.5 Z"/></g>
<g><path style="opacity:0.961" fill="#929292" d="M 213.5,254.5 C 203.67,255.447 193.67,256.114 183.5,256.5C 193.275,254.749 203.275,254.083 213.5,254.5 Z"/></g>
<g><path style="opacity:0.961" fill="#f6f6f6" d="M 377.5,255.5 C 382.43,255.197 387.263,255.531 392,256.5C 392.667,262.833 392.667,269.167 392,275.5C 384.568,276.654 377.068,277.654 369.5,278.5C 367.241,278.468 365.075,278.134 363,277.5C 362.5,270.508 362.334,263.508 362.5,256.5C 367.695,256.821 372.695,256.487 377.5,255.5 Z"/></g>
<g><path style="opacity:0.961" fill="#050505" d="M 195.5,259.5 C 210.396,262.365 223.896,268.365 236,277.5C 238.245,280.881 238.912,284.548 238,288.5C 235.711,294.251 232.545,299.418 228.5,304C 225.46,306.155 222.627,305.988 220,303.5C 212.167,289.83 203.834,276.497 195,263.5C 194.421,262.072 194.588,260.738 195.5,259.5 Z"/></g>
<g><path style="opacity:0.961" fill="#757575" d="M 389.5,296.5 C 381.49,296.644 373.49,296.977 365.5,297.5C 373.45,295.503 381.45,295.169 389.5,296.5 Z"/></g>
<g><path style="opacity:0.961" fill="#0e0e0e" d="M 215.5,327.5 C 219.131,327.16 222.464,327.994 225.5,330C 228.579,336.937 226.246,339.937 218.5,339C 216.904,335.351 215.904,331.518 215.5,327.5 Z"/></g>
<g><path style="opacity:0.961" fill="#0b0b0b" d="M 250.5,330.5 C 250.5,345.167 250.5,359.833 250.5,374.5C 257.167,374.5 263.833,374.5 270.5,374.5C 272.862,376.919 273.862,379.919 273.5,383.5C 262.167,383.5 250.833,383.5 239.5,383.5C 239.806,366.138 239.473,348.805 238.5,331.5C 238.712,329.112 240.045,328.112 242.5,328.5C 245.28,328.862 247.946,329.528 250.5,330.5 Z"/></g>
<g><path style="opacity:0.961" fill="#080808" d="M 178.5,328.5 C 200.968,329.409 210.801,341.075 208,363.5C 206.801,368.899 204.301,373.566 200.5,377.5C 200.977,378.478 201.643,379.311 202.5,380C 204.256,380.202 205.922,380.702 207.5,381.5C 202.28,391.565 196.614,391.898 190.5,382.5C 169.662,385.91 158.329,377.077 156.5,356C 156.853,341.08 164.186,331.913 178.5,328.5 Z"/></g>
<g><path style="opacity:0.961" fill="#aeaeae" d="M 250.5,330.5 C 251.496,344.657 251.829,358.99 251.5,373.5C 258.022,373.177 264.355,373.51 270.5,374.5C 263.833,374.5 257.167,374.5 250.5,374.5C 250.5,359.833 250.5,345.167 250.5,330.5 Z"/></g>
<g><path style="opacity:0.961" fill="#f8f8f8" d="M 177.5,338.5 C 193.467,337.975 199.967,345.641 197,361.5C 194.993,370.153 191.493,371.153 186.5,364.5C 183.784,362.914 181.45,363.247 179.5,365.5C 186.575,375.031 184.575,376.864 173.5,371C 167.473,364.097 165.973,356.264 169,347.5C 171.362,343.973 174.196,340.973 177.5,338.5 Z"/></g>
<g><path style="opacity:0.961" fill="#080808" d="M 279.5,344.5 C 283.077,344.205 286.243,345.205 289,347.5C 289.333,354.833 289.667,362.167 290,369.5C 291.691,373.213 294.525,374.379 298.5,373C 299.701,372.097 300.535,370.931 301,369.5C 301.529,361.461 301.529,353.461 301,345.5C 304.697,344.106 308.031,344.773 311,347.5C 311.333,356.5 311.667,365.5 312,374.5C 313.204,375.859 314.704,376.859 316.5,377.5C 312.716,384.524 308.05,385.191 302.5,379.5C 295.965,384.806 289.465,384.806 283,379.5C 282.333,378.167 281.667,376.833 281,375.5C 280.997,366.227 280.163,357.06 278.5,348C 278.648,346.744 278.982,345.577 279.5,344.5 Z"/></g>
<g><path style="opacity:0.961" fill="#070707" d="M 216.5,344.5 C 220.115,344.206 223.282,345.206 226,347.5C 226.333,355.5 226.667,363.5 227,371.5C 228.444,373.155 230.278,373.822 232.5,373.5C 231.422,383.889 226.589,386.223 218,380.5C 217.964,369.588 217.131,358.755 215.5,348C 215.648,346.744 215.982,345.577 216.5,344.5 Z"/></g>
<g><path style="opacity:0.961" fill="#0b0b0b" d="M 331.5,345.5 C 350.242,343.409 358.409,351.743 356,370.5C 348.647,384.596 338.314,387.262 325,378.5C 316.048,365.166 318.214,354.166 331.5,345.5 Z"/></g>
<g><path style="opacity:0.961" fill="#f7f7f7" d="M 335.5,352.5 C 345.437,353.31 348.937,358.644 346,368.5C 342.972,375.902 338.305,377.235 332,372.5C 327.793,364.792 328.96,358.125 335.5,352.5 Z"/></g>
</svg>
